<svg xmlns="http://www.w3.org/2000/svg" width="1400" height="900" viewBox="0 0 1400 900">
  <defs>
    <linearGradient id="plankA" x1="0" y1="0" x2="1" y2="0">
      <stop offset="0" stop-color="#b8884d"/>
      <stop offset="0.22" stop-color="#d2aa6d"/>
      <stop offset="0.55" stop-color="#bf8e4f"/>
      <stop offset="0.78" stop-color="#e2bf7d"/>
      <stop offset="1" stop-color="#a8753f"/>
    </linearGradient>
    <linearGradient id="plankB" x1="0" y1="0" x2="1" y2="0">
      <stop offset="0" stop-color="#c69857"/>
      <stop offset="0.28" stop-color="#e0bc78"/>
      <stop offset="0.58" stop-color="#b77f42"/>
      <stop offset="1" stop-color="#d2a866"/>
    </linearGradient>
    <linearGradient id="plankC" x1="0" y1="0" x2="1" y2="0">
      <stop offset="0" stop-color="#9f6d39"/>
      <stop offset="0.24" stop-color="#c4904f"/>
      <stop offset="0.52" stop-color="#dfbd7b"/>
      <stop offset="0.83" stop-color="#b58043"/>
      <stop offset="1" stop-color="#8f5e31"/>
    </linearGradient>
    <filter id="grain">
      <feTurbulence type="fractalNoise" baseFrequency="0.018 0.18" numOctaves="4" seed="12"/>
      <feColorMatrix type="matrix" values="0 0 0 0 0.45 0 0 0 0 0.28 0 0 0 0 0.12 0 0 0 0.34 0"/>
      <feBlend mode="multiply" in2="SourceGraphic"/>
    </filter>
    <pattern id="fineGrain" width="90" height="900" patternUnits="userSpaceOnUse">
      <path d="M10 0 C18 90, 6 180, 15 270 S8 450, 14 560 S9 740, 13 900" stroke="#5f3518" stroke-width="1" opacity="0.2" fill="none"/>
      <path d="M24 0 C29 110, 21 210, 27 325 S22 520, 31 650 S24 790, 28 900" stroke="#ffe1a1" stroke-width="1" opacity="0.18" fill="none"/>
      <path d="M42 0 C50 80, 38 205, 45 300 S39 465, 47 610 S40 760, 44 900" stroke="#68401f" stroke-width="1" opacity="0.17" fill="none"/>
      <path d="M63 0 C58 120, 70 250, 61 390 S70 570, 65 715 S72 840, 68 900" stroke="#f7cf87" stroke-width="1" opacity="0.14" fill="none"/>
      <path d="M80 0 C87 100, 74 205, 83 325 S76 505, 82 680 S75 820, 78 900" stroke="#4f2c14" stroke-width="1" opacity="0.12" fill="none"/>
    </pattern>
  </defs>

  <rect width="1400" height="900" fill="#bd884a"/>

  <g filter="url(#grain)">
    <rect x="0" y="0" width="82" height="900" fill="url(#plankA)"/>
    <rect x="82" y="0" width="96" height="900" fill="url(#plankB)"/>
    <rect x="178" y="0" width="72" height="900" fill="url(#plankC)"/>
    <rect x="250" y="0" width="110" height="900" fill="url(#plankA)"/>
    <rect x="360" y="0" width="78" height="900" fill="url(#plankB)"/>
    <rect x="438" y="0" width="126" height="900" fill="url(#plankC)"/>
    <rect x="564" y="0" width="92" height="900" fill="url(#plankA)"/>
    <rect x="656" y="0" width="86" height="900" fill="url(#plankB)"/>
    <rect x="742" y="0" width="116" height="900" fill="url(#plankC)"/>
    <rect x="858" y="0" width="88" height="900" fill="url(#plankA)"/>
    <rect x="946" y="0" width="128" height="900" fill="url(#plankB)"/>
    <rect x="1074" y="0" width="74" height="900" fill="url(#plankC)"/>
    <rect x="1148" y="0" width="102" height="900" fill="url(#plankA)"/>
    <rect x="1250" y="0" width="86" height="900" fill="url(#plankB)"/>
    <rect x="1336" y="0" width="64" height="900" fill="url(#plankC)"/>
  </g>

  <rect width="1400" height="900" fill="url(#fineGrain)" opacity="0.62"/>

  <g opacity="0.55">
    <path d="M82 0 V900" stroke="#4d2a13" stroke-width="4"/>
    <path d="M178 0 V900" stroke="#6b411f" stroke-width="3"/>
    <path d="M250 0 V900" stroke="#3f220f" stroke-width="4"/>
    <path d="M360 0 V900" stroke="#6b411f" stroke-width="3"/>
    <path d="M438 0 V900" stroke="#4d2a13" stroke-width="4"/>
    <path d="M564 0 V900" stroke="#6b411f" stroke-width="3"/>
    <path d="M656 0 V900" stroke="#3f220f" stroke-width="4"/>
    <path d="M742 0 V900" stroke="#6b411f" stroke-width="3"/>
    <path d="M858 0 V900" stroke="#4d2a13" stroke-width="4"/>
    <path d="M946 0 V900" stroke="#6b411f" stroke-width="3"/>
    <path d="M1074 0 V900" stroke="#3f220f" stroke-width="4"/>
    <path d="M1148 0 V900" stroke="#6b411f" stroke-width="3"/>
    <path d="M1250 0 V900" stroke="#4d2a13" stroke-width="4"/>
    <path d="M1336 0 V900" stroke="#6b411f" stroke-width="3"/>
  </g>

  <g opacity="0.45">
    <ellipse cx="146" cy="132" rx="8" ry="22" fill="#5b3418"/>
    <ellipse cx="306" cy="512" rx="10" ry="28" fill="#6d421f"/>
    <ellipse cx="510" cy="248" rx="8" ry="19" fill="#4a2913"/>
    <ellipse cx="805" cy="690" rx="12" ry="30" fill="#6b3c1b"/>
    <ellipse cx="1012" cy="370" rx="9" ry="25" fill="#563116"/>
    <ellipse cx="1204" cy="156" rx="7" ry="18" fill="#4f2b12"/>
    <ellipse cx="1360" cy="594" rx="9" ry="24" fill="#6a3d1c"/>
  </g>

  <rect width="1400" height="900" fill="rgba(255,255,255,0.08)"/>
</svg>

